<svg width="116" height="24" viewBox="0 0 116 24" fill="none" xmlns="http://www.w3.org/2000/svg">
<path d="M0.588 23.5L4.984 0.819998H10.108L14.476 23.5H10.192L9.38 18.516H5.796L4.928 23.5H0.588ZM6.216 15.688H8.932L7.56 6.532L6.216 15.688ZM16.7744 23.5V0.819998H21.3944V20.364H26.7144V23.5H16.7744ZM28.8877 23.5V0.819998H38.7717V4.012H33.5077V10.032H37.5677V13.252H33.5077V20.364H38.8277V23.5H28.8877ZM39.681 23.5L44.161 11.376L39.849 0.819998H44.217L46.905 7.344L49.173 0.819998H53.065L48.921 12.44L53.457 23.5H49.145L46.177 16.36L43.573 23.5H39.681ZM60.963 23.808C59.563 23.808 58.3963 23.556 57.463 23.052C56.5297 22.5293 55.8203 21.7547 55.335 20.728C54.8683 19.6827 54.5977 18.3573 54.523 16.752L58.499 16.08C58.5363 17.0133 58.6297 17.7973 58.779 18.432C58.947 19.048 59.1897 19.5147 59.507 19.832C59.843 20.1307 60.2537 20.28 60.739 20.28C61.3363 20.28 61.7377 20.0933 61.943 19.72C62.167 19.3467 62.279 18.9173 62.279 18.432C62.279 17.48 62.0457 16.6867 61.579 16.052C61.131 15.3987 60.5337 14.7453 59.787 14.092L57.435 12.048C56.595 11.3387 55.9043 10.536 55.363 9.64C54.8403 8.744 54.579 7.64267 54.579 6.336C54.579 4.46933 55.1203 3.04133 56.203 2.052C57.3043 1.044 58.807 0.539999 60.711 0.539999C61.8497 0.539999 62.783 0.726666 63.511 1.1C64.239 1.47333 64.799 1.97733 65.191 2.612C65.6017 3.228 65.8817 3.90933 66.031 4.656C66.199 5.384 66.3017 6.112 66.339 6.84L62.391 7.428C62.3537 6.73733 62.2883 6.13067 62.195 5.608C62.1203 5.08533 61.9523 4.67467 61.691 4.376C61.4483 4.07733 61.075 3.928 60.571 3.928C60.0297 3.928 59.6283 4.13333 59.367 4.544C59.1057 4.936 58.975 5.37467 58.975 5.86C58.975 6.66267 59.1523 7.32533 59.507 7.848C59.8803 8.352 60.3843 8.884 61.019 9.444L63.315 11.46C64.267 12.2813 65.079 13.224 65.751 14.288C66.4417 15.3333 66.787 16.6307 66.787 18.18C66.787 19.244 66.5443 20.2053 66.059 21.064C65.5737 21.9227 64.8923 22.5947 64.015 23.08C63.1563 23.5653 62.139 23.808 60.963 23.808ZM69.2757 23.5V0.819998H73.8957V10.144H77.8997V0.819998H82.5197V23.5H77.8997V13.448H73.8957V23.5H69.2757ZM92.3368 23.808C90.6754 23.808 89.3594 23.5093 88.3888 22.912C87.4181 22.3147 86.7181 21.4653 86.2888 20.364C85.8781 19.244 85.6728 17.9093 85.6728 16.36V7.904C85.6728 6.35467 85.8781 5.02933 86.2888 3.928C86.7181 2.82667 87.4181 1.98667 88.3888 1.408C89.3594 0.829332 90.6754 0.539999 92.3368 0.539999C94.0168 0.539999 95.3421 0.838665 96.3128 1.436C97.3021 2.01467 98.0021 2.85467 98.4128 3.956C98.8421 5.03867 99.0568 6.35467 99.0568 7.904V16.36C99.0568 17.9093 98.8421 19.244 98.4128 20.364C98.0021 21.4653 97.3021 22.3147 96.3128 22.912C95.3421 23.5093 94.0168 23.808 92.3368 23.808ZM92.3368 20.476C92.9341 20.476 93.3728 20.3453 93.6528 20.084C93.9328 19.804 94.1194 19.44 94.2128 18.992C94.3061 18.5253 94.3528 18.0307 94.3528 17.508V6.784C94.3528 6.26133 94.3061 5.776 94.2128 5.328C94.1194 4.88 93.9328 4.52533 93.6528 4.264C93.3728 3.984 92.9341 3.844 92.3368 3.844C91.7768 3.844 91.3568 3.984 91.0768 4.264C90.7968 4.52533 90.6101 4.88 90.5168 5.328C90.4234 5.776 90.3768 6.26133 90.3768 6.784V17.508C90.3768 18.0307 90.4141 18.5253 90.4888 18.992C90.5821 19.44 90.7688 19.804 91.0488 20.084C91.3288 20.3453 91.7581 20.476 92.3368 20.476ZM102.142 23.5V0.819998H109.338C110.7 0.819998 111.811 1.08133 112.67 1.604C113.528 2.108 114.163 2.84533 114.574 3.816C115.003 4.78667 115.218 5.96267 115.218 7.344C115.218 8.968 114.938 10.2373 114.378 11.152C113.836 12.0667 113.09 12.72 112.138 13.112C111.186 13.4853 110.094 13.672 108.862 13.672H106.762V23.5H102.142ZM106.762 10.424H108.386C109.058 10.424 109.571 10.3213 109.926 10.116C110.299 9.892 110.551 9.54667 110.682 9.08C110.812 8.61333 110.878 8.016 110.878 7.288C110.878 6.59733 110.822 6.01867 110.71 5.552C110.616 5.08533 110.392 4.72133 110.038 4.46C109.683 4.19867 109.123 4.068 108.358 4.068H106.762V10.424Z" fill="black"/>
</svg>
