<svg width="10" height="10" viewBox="0 0 10 10" fill="none" xmlns="http://www.w3.org/2000/svg">
<path d="M9.61927 9.65676C9.38022 9.87287 9.056 9.99427 8.71794 9.99427C8.37988 9.99427 8.05566 9.87287 7.8166 9.65676L5.00053 6.74689L2.18446 9.6558C2.06645 9.76424 1.92585 9.85049 1.77078 9.90956C1.61572 9.96864 1.44925 9.99937 1.28097 9.99999C1.1127 10.0006 0.945962 9.9711 0.790368 9.91317C0.634774 9.85524 0.493406 9.77003 0.374419 9.66246C0.255433 9.55489 0.161182 9.42709 0.097104 9.28642C0.0330257 9.14575 0.000387576 8.99501 0.00107276 8.84288C0.00175794 8.69076 0.0357526 8.54026 0.101096 8.40007C0.166439 8.25988 0.261838 8.13277 0.38179 8.02608L3.31153 5.00096L0.380728 1.97392C0.260776 1.86723 0.165377 1.74012 0.100034 1.59993C0.0346904 1.45974 0.000695752 1.30925 1.05685e-05 1.15712C-0.000674615 1.00499 0.0319635 0.854247 0.0960419 0.71358C0.16012 0.572914 0.254371 0.445109 0.373357 0.337538C0.492344 0.229967 0.633711 0.144758 0.789306 0.0868277C0.9449 0.0288969 1.11164 -0.000609893 1.27991 9.55452e-06C1.44818 0.000629002 1.61465 0.0313623 1.76972 0.0904366C1.92479 0.149511 2.06538 0.235758 2.1834 0.344201L5.00053 3.25504L7.8166 0.344201C7.93462 0.235758 8.07521 0.149511 8.23028 0.0904366C8.38535 0.0313623 8.55182 0.000629002 8.72009 9.55452e-06C8.88836 -0.000609893 9.0551 0.0288969 9.21069 0.0868277C9.36629 0.144758 9.50766 0.229967 9.62664 0.337538C9.74563 0.445109 9.83988 0.572914 9.90396 0.71358C9.96804 0.854247 10.0007 1.00499 9.99999 1.15712C9.9993 1.30925 9.96531 1.45974 9.89997 1.59993C9.83462 1.74012 9.73922 1.86723 9.61927 1.97392L6.68954 5.00096L9.61927 8.02608C9.73779 8.13311 9.83181 8.26021 9.89596 8.40011C9.96011 8.54001 9.99313 8.68997 9.99313 8.84142C9.99313 8.99287 9.96011 9.14283 9.89596 9.28273C9.83181 9.42263 9.73779 9.54973 9.61927 9.65676Z" fill="white"/>
</svg>
