<svg width="14" height="14" viewBox="0 0 14 14" fill="none" xmlns="http://www.w3.org/2000/svg">
<path d="M13.467 13.5195C13.1323 13.822 12.6784 13.992 12.2051 13.992C11.7318 13.992 11.2779 13.822 10.9432 13.5195L7.00074 9.44564L3.05824 13.5181C2.89302 13.6699 2.69619 13.7907 2.4791 13.8734C2.262 13.9561 2.02894 13.9991 1.79336 14C1.55778 14.0009 1.32435 13.9595 1.10651 13.8784C0.888683 13.7973 0.690768 13.678 0.524187 13.5274C0.357606 13.3768 0.225655 13.1979 0.135946 13.001C0.0462359 12.8041 0.000542607 12.593 0.00150186 12.38C0.00246112 12.1671 0.0500537 11.9564 0.141534 11.7601C0.233015 11.5638 0.366574 11.3859 0.534506 11.2365L4.63614 7.00135L0.533019 2.76349C0.365087 2.61412 0.231528 2.43617 0.140047 2.23991C0.0485666 2.04364 0.000974053 1.83294 1.47958e-05 1.61997C-0.000944461 1.40699 0.0447488 1.19595 0.134459 0.999012C0.224168 0.802079 0.356119 0.623152 0.5227 0.472553C0.689281 0.321953 0.887196 0.202662 1.10503 0.121559C1.32286 0.0404557 1.5563 -0.00085385 1.79188 1.33763e-05C2.02746 0.000880603 2.26051 0.0439072 2.47761 0.126611C2.6947 0.209315 2.89154 0.330061 3.05676 0.481881L7.00074 4.55705L10.9432 0.481881C11.1085 0.330061 11.3053 0.209315 11.5224 0.126611C11.7395 0.0439072 11.9725 0.000880603 12.2081 1.33763e-05C12.4437 -0.00085385 12.6771 0.0404557 12.895 0.121559C13.1128 0.202662 13.3107 0.321953 13.4773 0.472553C13.6439 0.623152 13.7758 0.802079 13.8655 0.999012C13.9553 1.19595 14.0009 1.40699 14 1.61997C13.999 1.83294 13.9514 2.04364 13.86 2.23991C13.7685 2.43617 13.6349 2.61412 13.467 2.76349L9.36535 7.00135L13.467 11.2365C13.6329 11.3863 13.7645 11.5643 13.8543 11.7602C13.9442 11.956 13.9904 12.166 13.9904 12.378C13.9904 12.59 13.9442 12.8 13.8543 12.9958C13.7645 13.1917 13.6329 13.3696 13.467 13.5195Z" fill="#263CFD"/>
</svg>
