<svg width="6" height="6" viewBox="0 0 6 6" fill="none" xmlns="http://www.w3.org/2000/svg">
<path d="M5.77156 5.79406C5.62813 5.92372 5.4336 5.99656 5.23076 5.99656C5.02793 5.99656 4.83339 5.92372 4.68996 5.79406L3.00032 4.04813L1.31068 5.79348C1.23987 5.85855 1.15551 5.91029 1.06247 5.94574C0.969429 5.98118 0.869547 5.99962 0.768585 5.99999C0.667622 6.00037 0.567577 5.98266 0.474221 5.9479C0.380864 5.91315 0.296044 5.86202 0.224652 5.79748C0.15326 5.73294 0.0967095 5.65625 0.0582624 5.57185C0.0198154 5.48745 0.000232546 5.39701 0.000643656 5.30573C0.00105477 5.21445 0.0214516 5.12415 0.0606576 5.04004C0.0998636 4.95593 0.157103 4.87966 0.229074 4.81565L1.98692 3.00058L0.228437 1.18435C0.156466 1.12034 0.0992263 1.04407 0.0600203 0.959961C0.0208143 0.875847 0.000417451 0.785547 6.34107e-06 0.694271C-0.000404769 0.602995 0.0191781 0.512548 0.0576251 0.428148C0.0960721 0.343748 0.152622 0.267065 0.224014 0.202523C0.295406 0.13798 0.380227 0.086855 0.473583 0.0520966C0.56694 0.0173381 0.666985 -0.000365936 0.767947 5.73271e-06C0.86891 0.000377401 0.968792 0.0188174 1.06183 0.054262C1.15487 0.0897066 1.23923 0.141455 1.31004 0.206521L3.00032 1.95302L4.68996 0.206521C4.76077 0.141455 4.84513 0.0897066 4.93817 0.054262C5.03121 0.0188174 5.13109 0.000377401 5.23205 5.73271e-06C5.33302 -0.000365936 5.43306 0.0173381 5.52642 0.0520966C5.61977 0.086855 5.70459 0.13798 5.77599 0.202523C5.84738 0.267065 5.90393 0.343748 5.94238 0.428148C5.98082 0.512548 6.0004 0.602995 5.99999 0.694271C5.99958 0.785547 5.97919 0.875847 5.93998 0.959961C5.90077 1.04407 5.84353 1.12034 5.77156 1.18435L4.01372 3.00058L5.77156 4.81565C5.84267 4.87986 5.89909 4.95612 5.93758 5.04007C5.97607 5.12401 5.99588 5.21398 5.99588 5.30485C5.99588 5.39572 5.97607 5.4857 5.93758 5.56964C5.89909 5.65358 5.84267 5.72984 5.77156 5.79406Z" fill="#263CFD"/>
</svg>
