<svg width="19" height="16" viewBox="0 0 19 16" fill="none" xmlns="http://www.w3.org/2000/svg">
<path fill-rule="evenodd" clip-rule="evenodd" d="M5.65347 10.6581H15.2583C15.3749 10.658 15.4887 10.6217 15.5838 10.5541C15.6789 10.4866 15.7507 10.3911 15.7892 10.281L18.3367 3.02112C18.3667 2.93621 18.3759 2.84534 18.3635 2.75614C18.3512 2.66693 18.3176 2.582 18.2655 2.50848C18.2135 2.43497 18.1446 2.375 18.0646 2.33363C17.9846 2.29227 17.8959 2.2707 17.8058 2.27075H5.42461C5.27535 2.27075 5.1322 2.33004 5.02666 2.43558C4.92112 2.54112 4.86182 2.68427 4.86182 2.83353C4.86182 2.98279 4.92112 3.12593 5.02666 3.23148C5.1322 3.33702 5.27535 3.39631 5.42461 3.39631H17.0123L14.8606 9.53251H6.06243L3.8657 2.6722C3.6955 2.06669 3.30901 1.5447 2.77953 1.20521C2.22238 0.871295 1.55266 0.801885 0.791033 0.998859C0.6465 1.03617 0.52271 1.12938 0.446896 1.25796C0.371081 1.38655 0.349452 1.53998 0.386767 1.68451C0.424082 1.82905 0.517284 1.95284 0.645869 2.02865C0.774455 2.10447 0.927891 2.12609 1.07242 2.08878C2.39496 1.74548 2.73263 2.76412 2.78703 2.96672L2.79829 3.00424L5.11695 10.266C5.15319 10.3798 5.22471 10.4792 5.32117 10.5497C5.41762 10.6202 5.53401 10.6581 5.65347 10.6581ZM6.85797 15.71C6.43127 15.7167 6.01222 15.5963 5.65408 15.3643C5.29595 15.1322 5.01491 14.7989 4.84671 14.4067C4.6785 14.0145 4.63071 13.5811 4.70943 13.1617C4.78815 12.7422 4.98981 12.3557 5.28877 12.0511C5.58774 11.7466 5.97051 11.5379 6.38842 11.4514C6.80633 11.365 7.2405 11.4048 7.63574 11.5657C8.03098 11.7267 8.36943 12.0015 8.60806 12.3553C8.8467 12.7091 8.97474 13.1259 8.97591 13.5527C8.98091 14.1195 8.76063 14.6652 8.36349 15.0697C7.96635 15.4742 7.42484 15.7045 6.85797 15.71ZM6.85797 12.5321C6.65348 12.5254 6.45164 12.58 6.27838 12.6888C6.10513 12.7976 5.96836 12.9558 5.88565 13.1429C5.80295 13.3301 5.77807 13.5377 5.81423 13.7391C5.85038 13.9404 5.94592 14.1264 6.08856 14.2731C6.2312 14.4198 6.41443 14.5205 6.61473 14.5623C6.81503 14.604 7.02324 14.585 7.21262 14.5075C7.402 14.4301 7.56391 14.2978 7.67754 14.1276C7.79118 13.9575 7.85136 13.7573 7.85035 13.5527C7.85237 13.2862 7.74936 13.0297 7.56361 12.8387C7.37787 12.6477 7.12435 12.5376 6.85797 12.5321ZM14.6729 15.71C14.2462 15.7167 13.8271 15.5963 13.469 15.3643C13.1108 15.1322 12.8298 14.7989 12.6616 14.4067C12.4934 14.0145 12.4456 13.5811 12.5243 13.1617C12.603 12.7422 12.8047 12.3557 13.1037 12.0511C13.4026 11.7466 13.7854 11.5379 14.2033 11.4514C14.6212 11.365 15.0554 11.4048 15.4506 11.5657C15.8459 11.7267 16.1843 12.0015 16.423 12.3553C16.6616 12.7091 16.7896 13.1259 16.7908 13.5527C16.7958 14.1195 16.5755 14.6652 16.1784 15.0697C15.7812 15.4742 15.2397 15.7045 14.6729 15.71ZM14.6729 12.5321C14.4684 12.5254 14.2665 12.58 14.0933 12.6888C13.92 12.7976 13.7833 12.9558 13.7006 13.1429C13.6178 13.3301 13.593 13.5377 13.6291 13.7391C13.6653 13.9404 13.7608 14.1264 13.9035 14.2731C14.0461 14.4198 14.2293 14.5205 14.4296 14.5623C14.6299 14.604 14.8381 14.585 15.0275 14.5075C15.2169 14.4301 15.3788 14.2978 15.4924 14.1276C15.6061 13.9575 15.6663 13.7573 15.6652 13.5527C15.6673 13.2862 15.5643 13.0297 15.3785 12.8387C15.1928 12.6477 14.9392 12.5376 14.6729 12.5321Z" fill="#003BD1"/>
<path d="M15.2583 10.6581V10.9081H15.2585L15.2583 10.6581ZM5.65347 10.6581V10.4081H5.65336L5.65347 10.6581ZM15.5838 10.5541L15.7286 10.7579L15.7286 10.7579L15.5838 10.5541ZM15.7892 10.281L15.5533 10.1982L15.5532 10.1985L15.7892 10.281ZM18.3367 3.02112L18.101 2.93779L18.1008 2.93834L18.3367 3.02112ZM18.3635 2.75614L18.1159 2.79052L18.1159 2.79052L18.3635 2.75614ZM18.0646 2.33363L18.1795 2.11157L18.1795 2.11157L18.0646 2.33363ZM17.8058 2.27075V2.52075L17.806 2.52075L17.8058 2.27075ZM5.02666 2.43558L5.20344 2.61236H5.20344L5.02666 2.43558ZM5.02666 3.23148L4.84988 3.40825L4.84988 3.40825L5.02666 3.23148ZM17.0123 3.39631L17.2482 3.47904L17.3649 3.14631H17.0123V3.39631ZM14.8606 9.53251V9.78251H15.0379L15.0965 9.61524L14.8606 9.53251ZM6.06243 9.53251L5.82434 9.60875L5.87998 9.78251H6.06243V9.53251ZM3.8657 2.6722L3.62487 2.73989L3.62761 2.74844L3.8657 2.6722ZM2.77953 1.20521L2.91453 0.99466L2.90805 0.990775L2.77953 1.20521ZM0.791033 0.998859L0.853527 1.24092L0.853628 1.2409L0.791033 0.998859ZM0.446896 1.25796L0.66225 1.38493L0.446896 1.25796ZM0.386767 1.68451L0.144704 1.74701L0.386767 1.68451ZM0.645869 2.02865L0.518895 2.24401L0.518896 2.24401L0.645869 2.02865ZM1.07242 2.08878L1.13492 2.33084L1.13524 2.33076L1.07242 2.08878ZM2.78703 2.96672L2.54548 3.03158L2.54758 3.03856L2.78703 2.96672ZM2.79829 3.00424L2.5588 3.07609L2.56013 3.08028L2.79829 3.00424ZM5.11695 10.266L5.35517 10.1902L5.35511 10.19L5.11695 10.266ZM6.85797 15.71L6.85557 15.46L6.85405 15.46L6.85797 15.71ZM4.70943 13.1617L4.95514 13.2078L4.70943 13.1617ZM5.28877 12.0511L5.11038 11.876L5.28877 12.0511ZM7.63574 11.5657L7.54145 11.7973L7.63574 11.5657ZM8.60806 12.3553L8.4008 12.4951V12.4951L8.60806 12.3553ZM8.97591 13.5527L8.72591 13.5533L8.72592 13.5549L8.97591 13.5527ZM8.36349 15.0697L8.18509 14.8946L8.36349 15.0697ZM6.27838 12.6888L6.1454 12.4771L6.1454 12.4771L6.27838 12.6888ZM6.85797 12.5321L6.84975 12.782L6.85289 12.7821L6.85797 12.5321ZM5.88565 13.1429L5.65699 13.0419H5.65699L5.88565 13.1429ZM5.81423 13.7391L6.06029 13.6949L5.81423 13.7391ZM6.08856 14.2731L6.26779 14.0988H6.26779L6.08856 14.2731ZM7.21262 14.5075L7.30724 14.7389H7.30725L7.21262 14.5075ZM7.67754 14.1276L7.46965 13.9888L7.46965 13.9888L7.67754 14.1276ZM7.85035 13.5527L7.60033 13.5507L7.60035 13.5539L7.85035 13.5527ZM7.56361 12.8387L7.38438 13.013L7.38438 13.013L7.56361 12.8387ZM14.6729 15.71L14.6705 15.46L14.6689 15.46L14.6729 15.71ZM12.5243 13.1617L12.77 13.2078V13.2078L12.5243 13.1617ZM13.1037 12.0511L12.9253 11.876L13.1037 12.0511ZM15.4506 11.5657L15.3564 11.7973L15.4506 11.5657ZM16.423 12.3553L16.2157 12.4951L16.423 12.3553ZM16.7908 13.5527L16.5408 13.5533L16.5408 13.5549L16.7908 13.5527ZM16.1784 15.0697L16 14.8946L16.1784 15.0697ZM14.0933 12.6888L13.9603 12.4771V12.4771L14.0933 12.6888ZM14.6729 12.5321L14.6646 12.782L14.6678 12.7821L14.6729 12.5321ZM13.7006 13.1429L13.4719 13.0419L13.4719 13.0419L13.7006 13.1429ZM13.6291 13.7391L13.8752 13.6949V13.6949L13.6291 13.7391ZM13.9035 14.2731L13.7242 14.4474L13.9035 14.2731ZM15.0275 14.5075L15.1221 14.7389H15.1221L15.0275 14.5075ZM15.4924 14.1276L15.7003 14.2665L15.4924 14.1276ZM15.6652 13.5527L15.4152 13.5507L15.4152 13.5539L15.6652 13.5527ZM15.3785 12.8387L15.1993 13.013L15.1993 13.013L15.3785 12.8387ZM15.2583 10.4081H5.65347V10.9081H15.2583V10.4081ZM15.439 10.3503C15.3862 10.3878 15.323 10.408 15.2581 10.4081L15.2585 10.9081C15.4269 10.908 15.5912 10.8555 15.7286 10.7579L15.439 10.3503ZM15.5532 10.1985C15.5318 10.2597 15.4919 10.3128 15.439 10.3503L15.7286 10.7579C15.8659 10.6604 15.9696 10.5226 16.0252 10.3635L15.5532 10.1985ZM18.1008 2.93834L15.5533 10.1982L16.0251 10.3638L18.5726 3.1039L18.1008 2.93834ZM18.1159 2.79052C18.1228 2.84009 18.1177 2.8906 18.101 2.93779L18.5724 3.10446C18.6158 2.98183 18.6291 2.85059 18.6112 2.72175L18.1159 2.79052ZM18.0615 2.65288C18.0904 2.69373 18.109 2.74093 18.1159 2.79052L18.6112 2.72176C18.5933 2.59293 18.5447 2.47028 18.4696 2.36409L18.0615 2.65288ZM17.9498 2.5557C17.9943 2.57869 18.0325 2.61202 18.0615 2.65288L18.4696 2.36409C18.3945 2.25792 18.295 2.17132 18.1795 2.11157L17.9498 2.5557ZM17.806 2.52075C17.856 2.52072 17.9053 2.53271 17.9498 2.5557L18.1795 2.11157C18.0639 2.05182 17.9358 2.02068 17.8057 2.02075L17.806 2.52075ZM5.42461 2.52075H17.8058V2.02075H5.42461V2.52075ZM5.20344 2.61236C5.26209 2.5537 5.34165 2.52075 5.42461 2.52075V2.02075C5.20904 2.02075 5.00231 2.10638 4.84988 2.2588L5.20344 2.61236ZM5.11182 2.83353C5.11182 2.75057 5.14478 2.67102 5.20344 2.61236L4.84988 2.2588C4.69746 2.41123 4.61182 2.61796 4.61182 2.83353H5.11182ZM5.20344 3.0547C5.14478 2.99604 5.11182 2.91648 5.11182 2.83353H4.61182C4.61182 3.04909 4.69746 3.25583 4.84988 3.40825L5.20344 3.0547ZM5.42461 3.14631C5.34165 3.14631 5.26209 3.11336 5.20344 3.0547L4.84988 3.40825C5.00231 3.56068 5.20904 3.64631 5.42461 3.64631V3.14631ZM17.0123 3.14631H5.42461V3.64631H17.0123V3.14631ZM15.0965 9.61524L17.2482 3.47904L16.7764 3.31358L14.6247 9.44979L15.0965 9.61524ZM6.06243 9.78251H14.8606V9.28251H6.06243V9.78251ZM3.62761 2.74844L5.82434 9.60875L6.30052 9.45627L4.10379 2.59596L3.62761 2.74844ZM2.64459 1.41567C3.12253 1.72211 3.47139 2.19329 3.62503 2.73985L4.10637 2.60455C3.9196 1.9401 3.49549 1.36729 2.91447 0.994756L2.64459 1.41567ZM0.853628 1.2409C1.56511 1.05689 2.16311 1.12724 2.65101 1.41965L2.90805 0.990775C2.28164 0.615351 1.54022 0.546878 0.728437 0.756822L0.853628 1.2409ZM0.66225 1.38493C0.704389 1.31346 0.773194 1.26166 0.853527 1.24092L0.728538 0.756796C0.519806 0.810685 0.341031 0.945285 0.231541 1.13099L0.66225 1.38493ZM0.62883 1.62202C0.60809 1.54169 0.620112 1.4564 0.66225 1.38493L0.231541 1.13099C0.122051 1.31669 0.0908149 1.53828 0.144704 1.74701L0.62883 1.62202ZM0.772843 1.8133C0.701373 1.77116 0.64957 1.70235 0.62883 1.62202L0.144704 1.74701C0.198594 1.95574 0.333194 2.13452 0.518895 2.24401L0.772843 1.8133ZM1.00993 1.84672C0.929595 1.86746 0.844313 1.85544 0.772843 1.8133L0.518896 2.24401C0.704597 2.3535 0.926187 2.38473 1.13492 2.33084L1.00993 1.84672ZM3.02848 2.90189C2.99672 2.78359 2.88285 2.42397 2.57495 2.13943C2.25061 1.8397 1.74602 1.65565 1.00961 1.8468L1.13524 2.33076C1.72137 2.17862 2.04688 2.33224 2.23561 2.50664C2.44078 2.69625 2.52295 2.94725 2.54559 3.03155L3.02848 2.90189ZM3.03775 2.9324L3.02649 2.89488L2.54758 3.03856L2.55883 3.07608L3.03775 2.9324ZM5.35511 10.19L3.03644 2.9282L2.56013 3.08028L4.8788 10.342L5.35511 10.19ZM5.46867 10.3478C5.41506 10.3087 5.37531 10.2534 5.35517 10.1902L4.87873 10.3418C4.93107 10.5062 5.03436 10.6497 5.17366 10.7515L5.46867 10.3478ZM5.65336 10.4081C5.58696 10.4081 5.52228 10.387 5.46867 10.3478L5.17366 10.7515C5.31297 10.8533 5.48105 10.9082 5.65359 10.9081L5.65336 10.4081ZM5.51813 15.5741C5.91787 15.8331 6.38562 15.9674 6.8619 15.96L6.85405 15.46C6.47693 15.4659 6.10656 15.3596 5.79004 15.1545L5.51813 15.5741ZM4.61694 14.5052C4.8047 14.943 5.11838 15.315 5.51813 15.5741L5.79004 15.1545C5.47351 14.9494 5.22513 14.6548 5.07647 14.3081L4.61694 14.5052ZM4.46372 13.1155C4.37586 13.5837 4.42919 14.0674 4.61694 14.5052L5.07647 14.3081C4.9278 13.9615 4.88557 13.5785 4.95514 13.2078L4.46372 13.1155ZM5.11038 11.876C4.77667 12.2159 4.55158 12.6474 4.46372 13.1155L4.95514 13.2078C5.02471 12.8371 5.20294 12.4954 5.46717 12.2263L5.11038 11.876ZM6.33779 11.2066C5.87132 11.3031 5.44408 11.5361 5.11038 11.876L5.46717 12.2263C5.7314 11.9571 6.0697 11.7726 6.43905 11.6963L6.33779 11.2066ZM7.73003 11.3342C7.28887 11.1546 6.80425 11.1101 6.33779 11.2066L6.43905 11.6963C6.80841 11.6199 7.19213 11.655 7.54145 11.7973L7.73003 11.3342ZM8.81532 12.2155C8.54896 11.8206 8.17119 11.5139 7.73003 11.3342L7.54145 11.7973C7.89077 11.9395 8.1899 12.1824 8.4008 12.4951L8.81532 12.2155ZM9.22591 13.552C9.22461 13.0756 9.08169 12.6104 8.81532 12.2155L8.4008 12.4951C8.61171 12.8078 8.72488 13.1762 8.72591 13.5533L9.22591 13.552ZM8.54189 15.2449C8.98546 14.793 9.23148 14.1836 9.2259 13.5504L8.72592 13.5549C8.73033 14.0555 8.53581 14.5373 8.18509 14.8946L8.54189 15.2449ZM6.86038 15.96C7.49351 15.9539 8.09832 15.6967 8.54189 15.2449L8.18509 14.8946C7.83438 15.2518 7.35617 15.4552 6.85557 15.46L6.86038 15.96ZM6.41137 12.9005C6.54241 12.8182 6.69508 12.7769 6.84975 12.782L6.8662 12.2823C6.61188 12.2739 6.36087 12.3418 6.1454 12.4771L6.41137 12.9005ZM6.11432 13.244C6.17688 13.1024 6.28032 12.9828 6.41137 12.9005L6.1454 12.4771C5.92993 12.6125 5.75985 12.8091 5.65699 13.0419L6.11432 13.244ZM6.06029 13.6949C6.03295 13.5426 6.05176 13.3855 6.11432 13.244L5.65699 13.0419C5.55413 13.2746 5.5232 13.5328 5.56816 13.7832L6.06029 13.6949ZM6.26779 14.0988C6.1599 13.9879 6.08764 13.8472 6.06029 13.6949L5.56816 13.7832C5.61312 14.0337 5.73193 14.265 5.90933 14.4474L6.26779 14.0988ZM6.66577 14.3175C6.51427 14.2859 6.37568 14.2098 6.26779 14.0988L5.90933 14.4474C6.08672 14.6298 6.3146 14.755 6.56369 14.807L6.66577 14.3175ZM7.11799 14.2761C6.97475 14.3347 6.81727 14.3491 6.66577 14.3175L6.56369 14.807C6.81279 14.8589 7.07172 14.8352 7.30724 14.7389L7.11799 14.2761ZM7.46965 13.9888C7.3837 14.1175 7.26124 14.2175 7.11799 14.2761L7.30725 14.7389C7.54277 14.6426 7.74412 14.4781 7.88544 14.2665L7.46965 13.9888ZM7.60035 13.5539C7.60111 13.7086 7.5556 13.8601 7.46965 13.9888L7.88544 14.2665C8.02676 14.0549 8.1016 13.8059 8.10034 13.5514L7.60035 13.5539ZM7.38438 13.013C7.52429 13.1569 7.60188 13.3501 7.60035 13.5507L8.10034 13.5546C8.10287 13.2224 7.97443 12.9026 7.74284 12.6644L7.38438 13.013ZM6.85289 12.7821C7.05353 12.7862 7.24448 12.8691 7.38438 13.013L7.74285 12.6644C7.51126 12.4263 7.19518 12.2889 6.86306 12.2822L6.85289 12.7821ZM13.333 15.5741C13.7328 15.8331 14.2005 15.9674 14.6768 15.96L14.6689 15.46C14.2918 15.4659 13.9215 15.3596 13.6049 15.1545L13.333 15.5741ZM12.4318 14.5052C12.6196 14.943 12.9333 15.315 13.333 15.5741L13.6049 15.1545C13.2884 14.9494 13.04 14.6548 12.8914 14.3081L12.4318 14.5052ZM12.2786 13.1155C12.1908 13.5837 12.2441 14.0674 12.4318 14.5052L12.8914 14.3081C12.7427 13.9615 12.7005 13.5785 12.77 13.2078L12.2786 13.1155ZM12.9253 11.876C12.5916 12.2159 12.3665 12.6474 12.2786 13.1155L12.77 13.2078C12.8396 12.8371 13.0178 12.4954 13.2821 12.2263L12.9253 11.876ZM14.1527 11.2066C13.6862 11.3031 13.259 11.5361 12.9253 11.876L13.2821 12.2263C13.5463 11.9571 13.8846 11.7726 14.254 11.6963L14.1527 11.2066ZM15.5449 11.3342C15.1038 11.1546 14.6191 11.1101 14.1527 11.2066L14.254 11.6963C14.6233 11.6199 15.007 11.655 15.3564 11.7973L15.5449 11.3342ZM16.6302 12.2155C16.3639 11.8206 15.9861 11.5139 15.5449 11.3342L15.3564 11.7973C15.7057 11.9395 16.0048 12.1824 16.2157 12.4951L16.6302 12.2155ZM17.0408 13.552C17.0395 13.0756 16.8966 12.6104 16.6302 12.2155L16.2157 12.4951C16.4266 12.8078 16.5398 13.1762 16.5408 13.5533L17.0408 13.552ZM16.3568 15.2449C16.8004 14.793 17.0464 14.1836 17.0408 13.5504L16.5408 13.5549C16.5452 14.0555 16.3507 14.5373 16 14.8946L16.3568 15.2449ZM14.6753 15.96C15.3084 15.9539 15.9132 15.6967 16.3568 15.2449L16 14.8946C15.6493 15.2518 15.1711 15.4552 14.6705 15.46L14.6753 15.96ZM14.2263 12.9005C14.3573 12.8182 14.51 12.7769 14.6646 12.782L14.6811 12.2823C14.4268 12.2739 14.1758 12.3418 13.9603 12.4771L14.2263 12.9005ZM13.9292 13.244C13.9918 13.1024 14.0952 12.9828 14.2263 12.9005L13.9603 12.4771C13.7448 12.6125 13.5747 12.8091 13.4719 13.0419L13.9292 13.244ZM13.8752 13.6949C13.8478 13.5426 13.8667 13.3855 13.9292 13.244L13.4719 13.0419C13.369 13.2746 13.3381 13.5328 13.3831 13.7832L13.8752 13.6949ZM14.0827 14.0988C13.9748 13.9879 13.9025 13.8472 13.8752 13.6949L13.3831 13.7832C13.428 14.0337 13.5468 14.265 13.7242 14.4474L14.0827 14.0988ZM14.4807 14.3175C14.3292 14.2859 14.1906 14.2098 14.0827 14.0988L13.7242 14.4474C13.9016 14.6298 14.1295 14.755 14.3786 14.807L14.4807 14.3175ZM14.9329 14.2761C14.7896 14.3347 14.6322 14.3491 14.4807 14.3175L14.3786 14.807C14.6277 14.8589 14.8866 14.8352 15.1221 14.7389L14.9329 14.2761ZM15.2845 13.9888C15.1986 14.1175 15.0761 14.2175 14.9329 14.2761L15.1221 14.7389C15.3577 14.6426 15.559 14.4781 15.7003 14.2665L15.2845 13.9888ZM15.4152 13.5539C15.416 13.7086 15.3705 13.8601 15.2845 13.9888L15.7003 14.2665C15.8417 14.0549 15.9165 13.8059 15.9152 13.5514L15.4152 13.5539ZM15.1993 13.013C15.3392 13.1569 15.4168 13.3501 15.4153 13.5507L15.9152 13.5546C15.9178 13.2224 15.7893 12.9026 15.5577 12.6644L15.1993 13.013ZM14.6678 12.7821C14.8684 12.7862 15.0594 12.8691 15.1993 13.013L15.5577 12.6644C15.3262 12.4263 15.0101 12.2889 14.678 12.2822L14.6678 12.7821Z" fill="#003BD1"/>
</svg>
