<svg width="16" height="16" viewBox="0 0 16 16" fill="none" xmlns="http://www.w3.org/2000/svg">
<path d="M8.07 12.8638L8 12.9401L7.923 12.8638C4.598 9.57548 2.4 7.40109 2.4 5.19619C2.4 3.6703 3.45 2.52589 4.85 2.52589C5.928 2.52589 6.978 3.28883 7.349 4.32643H8.651C9.022 3.28883 10.072 2.52589 11.15 2.52589C12.55 2.52589 13.6 3.6703 13.6 5.19619C13.6 7.40109 11.402 9.57548 8.07 12.8638ZM11.15 1C9.932 1 8.763 1.61798 8 2.58692C7.237 1.61798 6.068 1 4.85 1C2.694 1 1 2.83869 1 5.19619C1 8.07248 3.38 10.43 6.985 13.9929L8 15L9.015 13.9929C12.62 10.43 15 8.07248 15 5.19619C15 2.83869 13.306 1 11.15 1Z" fill="#263CFD" stroke="#263CFD" stroke-width="0.5"/>
</svg>
