<svg width="16" height="16" viewBox="0 0 16 16" fill="none" xmlns="http://www.w3.org/2000/svg">
<path d="M6.62839 1C7.69824 0.999882 8.74597 1.30464 9.64884 1.87857C10.5517 2.4525 11.2723 3.27183 11.7263 4.24058C12.1802 5.20934 12.3487 6.28739 12.212 7.34846C12.0753 8.40952 11.639 9.40965 10.9543 10.2317L14.8367 14.114C14.9041 14.1766 14.9533 14.2562 14.9792 14.3443C15.0052 14.4325 15.0068 14.5261 14.9841 14.6151C14.9613 14.7042 14.9149 14.7855 14.8498 14.8504C14.7848 14.9153 14.7034 14.9615 14.6143 14.984C14.5253 15.0068 14.4318 15.0052 14.3437 14.9794C14.2556 14.9536 14.176 14.9045 14.1134 14.8373L10.231 10.9549C9.53632 11.5334 8.71251 11.936 7.82929 12.1287C6.94607 12.3215 6.02942 12.2987 5.15687 12.0622C4.28433 11.8258 3.48157 11.3827 2.81649 10.7704C2.15141 10.1581 1.64358 9.39467 1.33595 8.54462C1.02832 7.69457 0.92995 6.78294 1.04915 5.88683C1.16835 4.99073 1.50162 4.13651 2.02077 3.39644C2.53992 2.65637 3.22967 2.05222 4.03169 1.63509C4.8337 1.21796 5.72438 1.00012 6.62839 1ZM2.02274 6.62908C2.02274 7.2339 2.14187 7.83279 2.37332 8.39157C2.60478 8.95035 2.94403 9.45807 3.3717 9.88574C3.79938 10.3134 4.3071 10.6527 4.86588 10.8841C5.42467 11.1156 6.02357 11.2347 6.62839 11.2347C7.23321 11.2347 7.83212 11.1156 8.3909 10.8841C8.94968 10.6527 9.45741 10.3134 9.88508 9.88574C10.3128 9.45807 10.652 8.95035 10.8835 8.39157C11.1149 7.83279 11.234 7.2339 11.234 6.62908C11.234 5.4076 10.7488 4.23614 9.88508 3.37242C9.02135 2.5087 7.84989 2.02347 6.62839 2.02347C5.4069 2.02347 4.23543 2.5087 3.3717 3.37242C2.50797 4.23614 2.02274 5.4076 2.02274 6.62908Z" fill="#263CFD" stroke="#263CFD" stroke-width="0.5"/>
</svg>
