<svg width="16" height="16" viewBox="0 0 16 16" fill="none" xmlns="http://www.w3.org/2000/svg">
<path d="M5.26954 4.71937L0.623641 5.40814L0.541355 5.42527C0.416789 5.45908 0.303231 5.5261 0.212277 5.61947C0.121323 5.71284 0.0562326 5.82922 0.0236521 5.95672C-0.00892837 6.08423 -0.00783137 6.21829 0.026831 6.34523C0.0614934 6.47216 0.128479 6.58741 0.220948 6.67921L3.58667 10.0292L2.79294 14.7613L2.78347 14.8432C2.77585 14.9749 2.8026 15.1064 2.86099 15.2241C2.91938 15.3418 3.00731 15.4415 3.11577 15.513C3.22424 15.5845 3.34935 15.6253 3.47828 15.6311C3.60721 15.6369 3.73535 15.6076 3.84955 15.5461L8.00464 13.3123L12.1503 15.5461L12.2231 15.5804C12.3433 15.6288 12.4739 15.6436 12.6016 15.6234C12.7292 15.6031 12.8493 15.5485 12.9495 15.4652C13.0497 15.3818 13.1265 15.2727 13.1718 15.149C13.2172 15.0253 13.2295 14.8915 13.2076 14.7613L12.4131 10.0292L15.7803 6.67846L15.8371 6.61517C15.9183 6.51298 15.9715 6.39063 15.9913 6.26058C16.0111 6.13052 15.9969 5.99742 15.9501 5.87482C15.9032 5.75222 15.8254 5.64451 15.7246 5.56266C15.6238 5.48081 15.5036 5.42775 15.3762 5.40889L10.7303 4.71937L8.65347 0.415474C8.59337 0.290776 8.50034 0.185771 8.3849 0.112344C8.26946 0.0389163 8.13622 0 8.00027 0C7.86432 0 7.73109 0.0389163 7.61565 0.112344C7.50021 0.185771 7.40718 0.290776 7.34708 0.415474L5.26954 4.71937Z" fill="#E3C414"/>
</svg>
